<svg width="1440" height="935" viewBox="0 0 1440 935" fill="none" xmlns="http://www.w3.org/2000/svg">
<g clip-path="url(#clip0_1_34)">
<path d="M401.403 436.507C451.171 468.524 496.503 515.757 508.231 570.598C520.277 625.439 498.721 687.888 466.705 745.265C434.687 802.642 391.893 854.314 340.539 866.042C289.185 877.454 228.955 848.29 170.943 823.247C112.933 797.887 56.8232 776.648 22.2703 734.487C-11.9657 692.326 -24.6457 628.926 -16.7207 566.794C-9.11266 504.345 19.1003 443.165 65.6992 410.513C112.615 377.862 177.917 373.741 237.513 380.398C297.427 387.055 351.633 404.491 401.403 436.507Z" fill="#FFDBB4"/>
</g>
<g clip-path="url(#clip1_1_34)">
<path fill-rule="evenodd" clip-rule="evenodd" d="M249.798 476.735L244.333 490.257L247.344 533.116L249.585 533.466C273.247 537.137 289.327 538.991 297.822 539.029L298.086 539.029C306.641 539.029 316.893 537.117 328.841 533.291L329.386 533.116L330.765 501.024H327.512L321.628 487.218L321.634 487.214C321.698 487.324 321.766 487.431 321.836 487.535C324.289 491.167 325.711 488.234 331.474 489.518C338.375 491.056 341.438 498.036 347.513 503.252C350.333 505.674 356.254 506.816 359.087 508.481L362.062 510.231C371.387 515.736 382.104 522.422 387.732 531.133C394.328 541.344 398.875 551.035 403.074 562.395C412.125 586.879 418.407 611.865 422.896 637.56C427.446 663.602 430.18 689.967 432.268 716.312C433.235 728.521 434.056 740.739 434.736 752.967L434.904 756.024C435.262 762.677 434.951 769.187 428.907 773.284C424.576 776.218 418.829 776.665 413.749 776.967L413.472 776.983C375.909 779.188 338.345 781.376 300.782 783.57L244.437 786.867C235.062 787.417 225.687 787.962 216.311 788.505L193.427 789.828C182.641 790.442 171.842 790.973 161.042 790.911C147.454 790.831 133.923 789.827 120.461 788.014L119.273 787.852C110.803 786.682 98.522 783.721 97.0006 773.554C96.7821 772.095 98.0659 771.183 99.1437 771.392C98.7891 769.738 98.5689 768.08 98.3585 766.641C97.4557 760.489 96.8889 754.299 96.6088 748.088C96.0469 735.661 96.5204 723.176 97.7617 710.803C99.8153 690.334 102.694 669.899 105.669 649.537L106.331 645.013C109.495 623.439 113.262 601.901 119.156 580.886C124.601 561.474 133.095 541.278 144.784 529.003C156.472 516.728 173.137 506.063 190.26 499.53C191.743 498.964 221.206 492.508 223.191 493.448L223.548 493.169C229.422 488.527 237.801 480.374 246.429 482.942L246.449 482.91C246.652 482.535 247.449 480.03 248.55 476.735H249.798Z" fill="#8FA7DF"/>
<path fill-rule="evenodd" clip-rule="evenodd" d="M256.029 458.739C263.165 449.684 270.687 446.806 281.803 447.48C289.34 447.211 296.858 449.169 303.241 453.495C309.089 456.553 314.275 460.763 317.976 466.182C321.142 470.815 318.737 482.264 321.628 487.218C321.6 487.757 321.586 488.249 321.586 488.693C321.586 492.979 324.566 497.763 330.528 503.044L330.765 503.252V534.403C320.742 537.487 308.333 539.029 293.538 539.029C278.963 539.029 263.804 536.58 248.06 531.682L247.344 531.458L244.333 497.603L247.344 488.234L247.344 480.387L248.507 476.877C250.567 470.707 253.721 461.668 256.029 458.739Z" fill="#694D3D"/>
<path fill-rule="evenodd" clip-rule="evenodd" d="M247.344 531.458C264.986 536.599 279.83 539.17 291.873 539.17C303.917 539.17 316.421 536.599 329.386 531.458L326.231 785.345L275.455 785.966L247.344 531.458Z" fill="#9FD8E5"/>
<path fill-rule="evenodd" clip-rule="evenodd" d="M160.23 642.313C160.034 641.946 160.488 641.617 160.789 641.881C167.629 647.889 171.21 657.536 171.961 666.454C172.756 675.911 171.628 685.702 171.197 695.154C170.718 705.683 170.287 716.216 169.701 726.74C169.106 737.418 168.466 748.092 167.917 758.771L166.682 782.795C166.551 785.355 166.835 788.504 165.853 790.893C164.332 794.598 159.813 794.024 158.863 790.928L158.833 790.826L158.747 790.893C157.909 788.103 158.536 784.79 158.678 781.905L159.972 755.657C160.886 737.104 161.701 718.551 162.683 700.002L163.017 693.819C163.476 685.496 163.828 677.194 164.111 668.873L164.203 666.098C164.471 657.744 164.258 649.857 160.23 642.313ZM326.042 488.297C329.852 487.935 332.73 489.199 336.189 490.532C337.696 491.111 339.124 491.782 340.569 492.475C342.38 493.344 343.544 494.88 344.658 496.504L345.254 497.379C349.896 504.185 353.018 512.037 356.541 519.447C360.662 528.115 364.824 536.764 368.857 545.473L370.848 549.763C371.843 551.909 372.835 554.056 373.812 556.209L375.5 559.957C377.197 563.759 378.718 567.78 376.3 571.701C374.052 575.348 370.066 578.17 366.91 580.989C364.277 583.342 361.644 585.694 359.01 588.045C364.455 593.502 368.11 600.373 370.258 607.741C373.311 606.468 377.037 606.224 380.193 605.673C384.611 604.903 385.153 611.597 380.983 611.515C377.903 611.455 374.291 611.769 371.132 611.12C371.681 613.542 372.079 615.999 372.332 618.464C373.66 631.382 370.759 644.375 367.734 656.873L367.485 657.899C364.2 671.427 361.085 684.99 358.298 698.63C355.505 712.299 352.992 726.026 350.762 739.798C348.492 753.817 346.885 767.912 345.159 782.005C344.898 784.138 343.557 785.966 341.202 785.966C339.24 785.966 336.998 784.133 337.244 782.005C339.026 766.658 341.552 751.392 344.062 736.151C348.385 709.903 353.826 683.884 360.086 658.035L361.179 653.534C363.995 641.859 366.55 629.83 365.138 617.787C363.987 607.981 359.891 597.526 351.794 591.436L351.547 591.252C349.656 589.864 348.929 587.21 350.791 585.382C351.977 584.218 353.163 583.056 354.351 581.895L361.478 574.931L362.915 573.524C364.113 572.354 365.317 571.19 366.557 570.062C367.307 569.38 369.342 568.079 369.491 566.957C369.587 566.224 368.721 564.938 368.37 564.263L366.761 561.014C365.848 559.161 364.962 557.294 364.07 555.43C362.222 551.57 360.347 547.721 358.538 543.841L347.675 520.544C344.61 513.971 341.88 507.032 337.873 500.956L337.083 499.772C336.424 498.774 335.841 497.814 335.425 496.595C335.024 495.421 334.521 494.133 333.78 493.131C332.045 490.781 328.728 489.448 325.953 488.956C325.552 488.884 325.697 488.33 326.042 488.297ZM242.489 482.178C242.73 482.178 242.766 482.523 242.544 482.59C239.196 483.597 235.996 485.223 233.386 487.57C232.137 488.693 230.879 489.968 230.108 491.48C229.813 492.058 229.65 492.669 229.53 493.303L229.492 493.515C229.293 494.66 229.008 495.297 228.427 496.214L228.327 496.369C225.01 501.496 222.685 507.191 220.559 512.894L215.93 525.327L211.304 537.761C209.813 541.768 208.322 545.775 206.831 549.781C206.007 551.993 205.16 554.196 204.313 556.399C203.947 557.353 203.553 558.301 203.218 559.267C203.172 559.399 203.026 560.194 202.916 560.387L202.953 560.453C203.886 562.024 206.375 563.336 207.786 564.478L212.643 568.408C216.106 571.21 219.658 573.934 223.017 576.862C225.127 578.7 223.814 581.992 221.461 582.76C217.518 584.046 213.654 585.584 209.77 587.039C208.201 587.627 206.567 588.138 205.017 588.786L204.073 589.194C203.704 589.36 203.881 589.359 203.896 590.039C203.911 590.754 204.113 591.498 204.229 592.2C205.537 600.117 206.924 608.021 208.388 615.911C213.566 643.812 219.752 671.51 226.807 698.994C230.371 712.874 234.193 726.685 237.835 740.544C241.467 754.366 246.247 767.99 250.812 781.527C252.099 785.345 246.051 786.988 244.795 783.187C239.535 767.266 234.723 751.205 229.753 735.194C220.924 706.743 213.967 677.675 207.813 648.536C204.763 634.095 201.974 619.598 199.447 605.055C198.969 602.302 198.5 599.547 198.04 596.791L197.371 592.736C196.912 589.846 196.65 586.836 198.895 584.549C201.086 582.317 204.849 581.526 207.732 580.479L207.942 580.402C209.777 579.716 211.625 579.056 213.466 578.375C210.754 576.238 208.075 574.054 205.37 571.918C203.187 570.196 200.971 568.507 198.819 566.745C197.046 565.291 195.599 563.425 195.414 561.061C195.226 558.645 196.26 556.403 197.095 554.187L197.175 553.972C197.994 551.76 198.815 549.549 199.658 547.345L204.87 533.701C208.183 525.032 211.356 516.292 214.84 507.689C216.218 504.285 217.721 500.934 219.496 497.717C220.352 496.165 221.269 494.646 222.267 493.182C223.384 491.539 224.399 490.738 226.131 489.832C228.9 488.383 231.073 485.954 233.853 484.46C236.583 482.994 239.39 482.212 242.489 482.178ZM251.478 466.71C251.584 466.528 251.864 466.609 251.868 466.816C251.94 471.125 250.917 475.528 250.288 479.789C249.656 484.064 249.453 488.577 248.539 492.807C248.52 493.004 248.482 493.198 248.428 493.389L248.384 493.534C247.998 494.719 246.994 495.724 245.763 496.038C246.15 498.185 246.515 500.336 246.822 502.499C247.349 506.217 247.83 509.94 248.303 513.664L248.87 518.134C249.404 522.346 249.924 526.56 250.438 530.774C251.746 531.321 253.08 531.773 254.446 532.164C257.593 533.065 260.816 533.432 264.064 533.751C270.677 534.4 277.341 534.701 283.978 535.069L285.4 535.149C292.861 535.577 300.363 535.653 307.805 534.887C311.496 534.507 315.157 533.87 318.756 532.966C320.585 532.507 322.362 531.821 324.187 531.372C324.793 531.223 325.334 530.88 325.94 530.514C326.21 530.173 326.587 529.915 327.08 529.815L327.213 529.792L327.345 529.773L327.391 529.752L327.387 529.766C327.76 529.716 328.115 529.716 328.45 529.762C328.583 526.476 328.727 523.19 328.908 519.905C329.393 511.082 330.734 501.878 328.945 493.132C328.885 492.838 329.284 492.734 329.389 493.01C332.9 502.269 332.505 512.393 332.682 522.138C332.855 531.668 332.751 541.204 332.703 550.736C333.385 551.027 333.994 551.421 334.476 551.973C335.438 553.078 335.715 554.997 334.476 556.063C333.926 556.536 333.318 556.864 332.673 557.091C332.639 565.372 332.581 573.654 332.497 581.935C334.071 583.151 334.218 586.04 332.438 587.24C332.142 614.058 331.655 640.877 331.251 667.691L330.405 723.947C330.293 731.442 330.106 738.937 330.039 746.431L330.092 746.452L330.279 746.539C330.595 746.688 331.064 746.927 331.161 747.172C331.186 747.237 331.193 747.28 331.19 747.314C331.706 747.386 332.218 747.63 332.66 748.05C333.753 749.089 333.531 750.655 332.66 751.713L332.428 751.996C331.885 752.656 330.855 752.91 330.013 752.776C330.021 757.453 330.051 762.132 330.037 766.809C330.032 768.238 330.01 769.666 329.986 771.095L329.927 774.521C329.888 776.476 329.715 778.96 327.714 779.838C325.457 780.83 323.433 780.018 322.519 777.723C322.272 777.102 322.325 776.523 322.415 775.909C322.387 774.986 322.243 773.916 322.26 773.059L322.335 769.488C322.347 768.937 322.369 768.387 322.385 767.836L322.319 767.843C314.299 768.232 306.223 768.042 298.19 768.037L294.618 768.043C291.637 768.045 288.649 768.029 285.673 767.915L284.557 767.868C282.329 767.763 279.985 767.73 277.675 767.53C277.969 769.904 278.244 772.279 278.489 774.656C278.722 776.911 276.397 778.826 274.323 778.826C271.86 778.826 270.451 776.889 270.156 774.656C268.764 764.125 268.195 753.496 266.865 742.959C265.674 733.52 264.641 724.061 263.591 714.605L263.241 711.453C259.399 677.04 255.669 642.615 252.102 608.173L250.441 592.072C248.763 575.844 247.076 559.615 245.653 543.363C244.839 534.072 244.089 524.778 243.383 515.478C242.865 508.645 242.54 501.85 242.328 495.031C241.494 494.171 241.075 492.916 241.445 491.619C241.661 490.863 241.913 490.111 242.178 489.36C242.161 488.621 242.144 487.884 242.13 487.145C242.116 486.446 242.826 486.086 243.393 486.202C244.425 483.701 245.561 481.222 246.51 478.746C248.045 474.738 249.31 470.419 251.478 466.71ZM165.762 510.031C181.806 499.967 200.905 492.726 220.033 493.506C220.468 493.524 220.59 494.187 220.139 494.288C209.936 496.568 199.62 499.345 189.961 503.386C180.273 507.44 171.062 512.899 162.858 519.458C147.721 531.561 135.955 547.303 128.208 565.048C123.67 575.443 120.489 586.417 117.712 597.396C114.773 609.014 112.35 620.758 110.336 632.572C106.358 655.909 104.042 679.502 102.81 703.137C101.556 727.178 102.073 751.237 101.178 775.282C101.024 779.448 95.074 779.367 94.7716 775.282C92.7454 747.944 93.868 720.17 95.7418 692.852C97.4267 668.293 100.369 643.786 105.107 619.623L105.52 617.529C109.949 595.173 115.291 572.276 125.999 552.03C135.141 534.746 149.254 520.385 165.762 510.031ZM388.561 616.875C388.645 616.635 388.961 616.639 389.045 616.875C390.875 621.999 390.94 627.781 391.426 633.183L391.465 633.598C391.931 638.524 392.282 643.457 392.608 648.394L392.73 650.245C394.04 670.385 395.677 690.503 398.145 710.536C400.604 730.495 403.929 750.314 407.524 770.094C407.925 772.296 406.95 774.539 404.643 775.174C402.608 775.733 399.997 774.479 399.567 772.29C397.335 760.936 395.53 749.568 393.92 738.116C391.085 717.951 388.97 697.693 387.609 677.374C386.927 667.169 386.507 656.968 386.339 646.741C386.262 641.997 386.385 637.24 386.638 632.5L386.699 631.407C386.977 626.562 386.949 621.495 388.561 616.875ZM215.193 745.154C215.407 745.038 215.672 745.276 215.537 745.498C212.43 750.551 208.227 754.908 204.165 759.202C199.918 763.691 195.777 768.316 191.444 772.716C188.314 775.895 183.279 770.767 186.582 767.85C191.227 763.75 196.082 759.853 200.81 755.844L202.878 754.09C206.754 750.813 210.745 747.565 215.193 745.154ZM362.75 742.623C362.518 742.181 363.047 741.822 363.407 742.115C365.913 744.155 368.159 746.588 370.579 748.74C372.975 750.872 375.461 752.86 378.015 754.799C380.579 756.747 383.199 758.616 385.89 760.385C388.122 761.853 390.423 763.028 392.76 764.246C393.842 764.386 394.845 764.917 395.647 765.925C396.916 767.519 397.051 770.525 395.291 771.91L394.975 772.158C392.922 773.773 390.484 773.97 388.463 772.158C386.206 770.135 384.073 767.909 381.906 765.771L381.254 765.133C378.925 762.867 376.653 760.528 374.511 758.084L372.571 755.876C368.973 751.77 365.229 747.345 362.75 742.623ZM351.206 505.893C350.79 505.617 351.046 504.873 351.561 505.05L352.505 505.377C356.448 506.748 360.507 508.269 364.087 510.381C367.934 512.649 371.486 515.352 374.88 518.252C381.905 524.253 387.882 531.634 392.961 539.326C403.152 554.763 409.455 572.441 414.544 590.13C419.97 608.99 424.147 628.256 427.558 647.577C431.024 667.212 433.697 687.024 435.455 706.886C436.32 716.67 436.901 726.46 437.194 736.279C437.344 741.329 437.339 746.377 437.297 751.429C437.286 752.729 437.295 754.027 437.31 755.326L437.359 759.223C437.386 761.686 437.68 764.275 437.095 766.682C436.154 770.557 429.753 769.834 429.963 765.874C429.77 764.556 429.763 763.195 429.813 761.83C429.782 761.654 429.749 761.475 429.713 761.293C429.608 760.769 429.697 760.284 429.902 759.868C429.935 759.213 429.965 758.563 429.976 757.924C430.018 755.322 430.015 752.731 429.943 750.13C429.792 744.647 429.574 739.163 429.354 733.682C428.914 722.73 428.302 711.772 427.415 700.846C424.328 662.815 417.811 624.567 406.863 587.979C401.779 570.988 394.769 554.309 384.716 539.627C380.254 533.109 375.219 527.089 369.638 521.501C364.022 515.878 357.832 510.285 351.206 505.893ZM275.455 751.057L276.214 756.549C276.593 759.296 276.968 762.043 277.325 764.792C279.746 764.46 282.224 764.321 284.557 764.114C288.642 763.752 292.755 763.577 296.852 763.407C305.324 763.058 313.839 762.451 322.319 762.494C322.406 762.494 322.489 762.5 322.571 762.507L322.992 751.671L317.033 751.661C311.985 751.653 306.937 751.61 301.889 751.567C297.342 751.528 292.794 751.521 288.248 751.427L286.3 751.38C282.852 751.287 279.045 751.479 275.455 751.057ZM323.492 735.328C323.249 735.357 323.001 735.381 322.738 735.392C321.558 735.442 320.368 735.408 319.187 735.417C316.672 735.439 314.158 735.456 311.643 735.456C306.613 735.455 301.584 735.486 296.555 735.547C291.378 735.609 286.205 735.699 281.027 735.709C278.519 735.714 276.018 735.647 273.511 735.577C273.916 739.144 274.34 742.708 274.808 746.263C278.702 745.736 282.891 746.002 286.697 745.965L287.191 745.959C292.385 745.87 297.584 745.936 302.78 745.942C308.125 745.948 313.469 745.966 318.815 746.009L323.206 746.046L323.215 745.824C323.343 742.329 323.426 738.83 323.492 735.328ZM271.579 718.266C272.066 722.476 272.523 726.693 272.988 730.909C273.298 730.861 273.612 730.82 273.931 730.786C276.443 730.523 278.95 730.298 281.471 730.142C286.497 729.83 291.522 729.666 296.555 729.531C301.731 729.392 306.908 729.285 312.086 729.212C314.602 729.177 317.116 729.18 319.631 729.198C320.811 729.206 322.004 729.168 323.181 729.248C323.322 729.257 323.456 729.272 323.589 729.287L323.678 722.958C323.693 721.903 323.709 720.848 323.726 719.794C319.838 720.034 315.885 719.942 312 719.943L311.105 719.945C306.223 719.968 301.339 719.901 296.458 719.799C291.423 719.694 286.398 719.53 281.371 719.207C279.335 719.077 277.313 718.903 275.288 718.679L274.275 718.563C273.394 718.459 272.486 718.375 271.579 718.266ZM324.127 700.405C314.763 701.148 305.45 701.459 296.061 701.552L294.652 701.564C286.355 701.627 277.99 701.969 269.674 701.749C270.171 706.064 270.667 710.378 271.167 714.692C272.358 714.637 273.554 714.636 274.718 714.594C277.086 714.509 279.446 714.487 281.815 714.482C286.696 714.471 291.577 714.513 296.458 714.503C301.489 714.493 306.519 714.408 311.548 714.313C315.626 714.236 319.747 713.929 323.836 713.94L324.127 700.405ZM324.523 681.998C323.438 682.358 322.157 682.381 320.753 682.446L317.128 682.627C315.448 682.709 313.768 682.786 312.086 682.848C306.485 683.053 300.883 683.245 295.28 683.423C289.539 683.606 283.77 683.712 278.028 683.531C275.215 683.442 272.426 683.294 269.622 683.059C268.929 683.001 268.222 682.963 267.514 682.913C268.167 688.63 268.822 694.345 269.479 700.061C277.756 699.044 286.096 698.411 294.363 697.36L301.837 696.404C309.308 695.45 316.773 694.514 324.271 693.725L324.523 681.998ZM324.922 663.387C323.33 663.781 321.516 663.761 319.987 663.858L319.704 663.877C316.807 664.097 313.903 664.207 310.999 664.279C305.308 664.419 299.614 664.489 293.922 664.524L290.499 664.545C285.935 664.572 281.375 664.584 276.81 664.477C273.882 664.409 270.961 664.266 268.035 664.119C267.158 664.075 266.262 664.046 265.364 664.001C265.975 669.413 266.593 674.823 267.209 680.234C268.171 680.082 269.136 679.965 270.057 679.81C272.415 679.411 274.769 679.093 277.144 678.808C282.287 678.191 287.458 677.747 292.626 677.372C297.932 676.987 303.242 676.662 308.549 676.29L312.307 676.024C313.56 675.937 314.812 675.853 316.066 675.776C318.206 675.645 320.694 675.793 322.817 675.327C323.392 675.088 324.031 675.033 324.67 675.169L324.922 663.387ZM325.404 641.604C324.853 642.304 324.031 642.671 323.05 642.798C317.94 643.461 312.699 643.568 307.546 643.88L306.638 643.938C301.317 644.289 295.994 644.564 290.669 644.847C285.2 645.138 279.731 645.375 274.257 645.565C271.933 645.646 269.598 645.656 267.27 645.626L266.273 645.611C265.317 645.595 264.316 645.597 263.313 645.565C263.868 650.625 264.429 655.685 264.997 660.744C266.02 660.633 267.043 660.548 268.035 660.443C270.959 660.134 273.879 659.828 276.81 659.597C282.363 659.159 287.92 658.895 293.484 658.62C299.176 658.338 304.871 658.15 310.564 657.884C313.324 657.755 316.083 657.594 318.835 657.34C320.764 657.163 323.055 656.506 325.067 656.747C325.177 651.699 325.291 646.651 325.404 641.604ZM325.853 622.09C325.766 622.225 325.664 622.355 325.54 622.477C323.291 624.701 320.518 624.53 317.537 624.763L317.355 624.778C314.433 625.024 311.51 625.258 308.585 625.469C302.738 625.891 296.88 626.187 291.025 626.45C285.033 626.719 279.002 626.905 273.004 626.782C269.163 626.704 265.14 626.718 261.222 626.343C261.824 631.916 262.429 637.489 263.039 643.062C264.141 642.854 265.249 642.695 266.299 642.529C268.946 642.113 271.595 641.694 274.257 641.387C279.576 640.774 284.897 640.201 290.226 639.684C294.784 639.242 299.34 638.793 303.901 638.389L306.638 638.152C312.08 637.694 317.59 636.938 323.05 636.826C323.949 636.808 324.967 637.298 325.482 638.071C325.603 632.744 325.728 627.417 325.853 622.09ZM326.231 606.292C324.841 606.461 323.344 606.365 322.062 606.407C318.819 606.513 315.576 606.611 312.333 606.707L292.876 607.282C286.251 607.477 279.603 607.624 272.976 607.53C270.06 607.489 267.132 607.484 264.218 607.326L263.247 607.267C262.048 607.187 260.576 607.176 259.138 607.029L260.835 622.76C264.734 622.196 268.752 621.985 272.618 621.655L273.444 621.582C279.145 621.062 284.874 620.718 290.585 620.331C296.445 619.934 302.295 619.452 308.146 618.959C311.071 618.713 313.995 618.468 316.917 618.199L317.278 618.163C320.038 617.875 322.634 617.261 325.079 618.89C325.436 619.128 325.716 619.446 325.908 619.802C326.015 615.299 326.119 610.795 326.231 606.292ZM326.684 587.934C314.834 588.411 302.983 588.774 291.124 588.933C284.449 589.022 277.782 588.959 271.108 588.82C268.213 588.759 265.295 588.62 262.403 588.398L261.32 588.311C259.945 588.195 258.501 588.111 257.063 587.973C257.657 593.381 258.247 598.791 258.832 604.201C260.247 603.938 261.725 603.816 262.965 603.658L263.247 603.62C266.328 603.196 269.437 602.949 272.533 602.676C278.562 602.144 284.62 601.802 290.665 601.511C296.854 601.213 303.047 600.96 309.237 600.685L315.429 600.407C316.46 600.362 317.492 600.317 318.524 600.273C319.998 600.211 321.472 600.151 322.947 600.09C323.674 600.06 324.43 599.961 325.158 599.999L325.365 599.971C325.46 599.959 325.545 599.949 325.622 599.941C325.82 599.79 326.033 599.665 326.259 599.57L326.396 599.517L326.684 587.934ZM255.12 570.536C255.67 575.405 256.214 580.275 256.751 585.146C258.441 584.953 260.151 584.846 261.765 584.701C265.019 584.409 268.289 584.153 271.552 584.003L278.076 583.7C282.424 583.499 286.772 583.304 291.124 583.145C303.033 582.71 314.942 582.212 326.844 581.603C326.928 578.3 327.015 574.997 327.103 571.693C326.532 572.306 325.707 572.709 324.622 572.706C312.127 572.672 299.621 572.745 287.127 572.539C280.873 572.436 274.626 572.284 268.38 571.963C265.323 571.807 262.249 571.486 259.216 571.066C257.922 570.886 256.507 570.759 255.12 570.536ZM253.12 553.187C253.707 558.174 254.283 563.163 254.85 568.153C256.402 567.876 258.005 567.728 259.453 567.531C262.563 567.108 265.693 566.771 268.826 566.594C274.923 566.249 281.022 566.075 287.127 565.945C299.62 565.68 312.126 565.681 324.622 565.583C325.796 565.573 326.667 566.038 327.24 566.732C327.326 563.617 327.418 560.503 327.512 557.388C326.305 557.26 325.108 557.08 324.001 557.002C320.598 556.764 317.193 556.547 313.787 556.352C306.68 555.944 299.566 555.595 292.453 555.286C285.339 554.976 278.222 554.673 271.106 554.409L267.993 554.296C263.044 554.111 258.012 553.879 253.12 553.187ZM250.882 534.403C251.493 539.454 252.095 544.506 252.696 549.559L252.879 551.123C258.831 549.965 265.104 549.626 271.106 549.371C278.224 549.068 285.329 548.912 292.453 548.933C299.57 548.955 306.676 549.123 313.787 549.418C317.341 549.564 320.894 549.734 324.445 549.927C325.421 549.98 326.566 549.952 327.744 549.969C327.77 549.175 327.792 548.381 327.819 547.587C327.927 544.371 328.033 541.155 328.143 537.94C325.741 539.174 322.618 539.672 320.205 540.198L319.929 540.259C315.943 541.155 311.874 541.736 307.805 542.091C299.816 542.788 291.744 542.528 283.762 541.852L282.364 541.732C275.355 541.124 268.088 540.353 261.294 538.617C258.057 537.791 254.711 536.634 251.811 534.957C251.509 534.782 251.198 534.598 250.882 534.403ZM318.37 474.374C318.439 474.101 318.848 474.039 318.982 474.294C319.926 476.089 320.277 478.243 320.932 480.166C321.637 482.233 322.295 484.315 323.074 486.357C324.699 490.624 326.617 494.724 328.903 498.676C331.167 502.59 324.827 505.383 323.161 501.099C321.441 496.677 320.027 492.106 319.172 487.434C318.754 485.154 318.382 482.843 318.261 480.527C318.157 478.538 317.878 476.315 318.37 474.374Z" fill="black"/>
<path fill-rule="evenodd" clip-rule="evenodd" d="M355.453 346.837C339.772 305.459 311.504 275.163 263.849 294.192C262.482 293.258 260.698 293.008 258.989 294.101C233.03 310.449 214.336 336.66 206.235 366.215C201.304 367.155 196.514 368.795 192.234 371.484C182.935 377.328 176.678 386.628 170.813 395.685C169.049 398.408 170.682 402.916 173.997 403.534C175.436 403.804 176.863 403.964 178.282 404.006C177.937 405.263 177.482 406.478 176.903 407.593C174.807 411.627 178.767 415.91 182.479 414.807C182.89 415.026 183.322 415.206 183.769 415.341C183.82 417.626 184.991 420.685 187.308 421.147C191.056 421.954 196.037 419.077 195.152 414.873C196.284 415.072 197.413 415.097 198.512 414.959C198.635 417.148 198.597 419.433 198.898 421.452C199.883 430.969 209.364 437.362 218.405 434.467C218.96 437.432 219.611 441.598 222.523 443.207C225.928 452.786 231.807 463.718 241.435 468.082C240.578 470.285 241.043 472.965 243.625 474.439C261.25 484.516 282.405 487.927 302.331 484.18C310.294 483.704 318.053 481.899 325.501 478.054C330.932 475.25 335.924 471.69 340.798 468.019C345.674 464.347 350.888 460.771 354.78 456.003C359.008 450.825 360.976 444.733 362.253 438.248C368.105 408.815 366.083 379.914 355.453 351.876C342.294 317.169 368.607 381.546 355.453 346.837Z" fill="#694D3D"/>
<path fill-rule="evenodd" clip-rule="evenodd" d="M192.188 369.791C206.826 361.132 225.493 363.373 234.287 376.787C235.805 379.103 236.854 381.65 237.594 384.599L237.714 385.09L237.833 385.605C238.216 387.31 238.468 388.915 238.808 391.643L239.186 394.738L239.294 395.581C239.66 398.383 239.982 400.152 240.482 401.956L240.582 402.306L241.16 404.304L238.977 405.113C234.793 406.629 233.917 406.764 231.503 405.498C229.618 404.51 228.634 403.18 227.324 400.483L227.135 400.089L226.717 399.209L226.49 398.746C225.637 397.037 224.954 395.215 223.989 394.554C222.677 393.655 218.545 393.297 215.671 393.651L215.521 393.67L215.397 393.696L215.184 393.744C210.351 394.89 205.946 398.803 203.041 402.938C200.701 406.268 199.357 410.462 199.192 414.82L199.183 415.111L199.125 417.335L194.44 417.235L194.486 416.369L194.416 416.523C192.94 419.644 189.232 421.722 186.129 419.657L186.018 419.581L185.906 419.5C183.287 417.566 182.971 413.652 185.121 411.275L185.22 411.168L185.317 411.069L185.297 411.06L185.275 411.052L185.261 411.051C184.529 411.186 183.886 411.563 183.015 412.365L182.791 412.575L182.342 413.063L181.877 413.561L181.677 413.766C181.549 413.896 181.432 414.009 181.322 414.11C181.173 414.245 181.036 414.36 180.886 414.464C180.747 414.56 180.604 414.644 180.431 414.719C180.005 414.905 179.548 414.993 178.964 414.849C178.164 414.652 177.712 414.166 177.439 413.594C177.333 413.372 177.272 413.168 177.229 412.952C177.184 412.727 177.162 412.496 177.15 412.231C177.143 412.057 177.14 411.868 177.142 411.661L177.147 411.336L177.158 410.984L177.17 410.703L177.223 409.66C177.413 406.237 178.31 402.875 179.845 399.702L180.001 399.385L180.059 399.27L179.899 399.486C178.851 400.87 177.84 401.83 176.578 402.464L176.404 402.548L176.234 402.625C174.483 403.397 172.719 403.098 171.653 401.667C170.916 400.677 170.698 399.375 170.849 398.004C171.143 395.346 172.191 392.911 174.244 389.359L174.531 388.865L175.658 386.949C180 379.62 185.581 373.699 192.188 369.791Z" fill="#E8E1E1"/>
<path fill-rule="evenodd" clip-rule="evenodd" d="M279.641 286.129C287.666 285.56 295.838 286.917 303.481 289.344C315.67 293.214 326.864 300.043 336.061 308.934C345.54 318.096 352.55 329.393 356.812 341.87C361.953 356.917 362.722 372.983 364.169 388.69C364.9 396.626 366.104 404.441 367.356 412.3L367.554 413.541C368.777 421.198 369.466 428.943 367.776 436.588C364.967 449.294 356.546 460.08 346.55 468.049C326.016 484.421 294.051 494.403 270.143 479.337C266.444 477.006 269.949 471.046 273.56 473.475C276.101 475.185 278.793 476.684 281.68 477.718C293.743 482.042 306.99 480.502 318.912 476.48C330.661 472.517 341.934 465.821 350.602 456.885C359.708 447.499 364.754 435.906 364.025 422.714C363.59 414.865 361.807 407.161 360.818 399.376C359.941 392.481 359.416 385.549 358.81 378.626L358.588 376.136C357.303 362.031 355.459 347.539 349.06 334.736C343.678 323.965 335.797 314.382 326.32 306.982C316.399 299.234 304.549 293.815 292.116 291.794C277.495 289.417 263.499 293.739 251.302 301.784C240.485 308.919 231.185 318.454 224.054 329.272C220.596 334.518 217.65 340.12 215.106 345.865C212.709 351.278 211.056 356.951 209.128 362.531C210.715 362.483 212.327 362.544 213.965 362.726C222.365 363.659 230.19 368.025 235.172 374.91C241.261 383.322 239.615 393.648 241.993 403.215C242.177 403.957 241.864 404.684 241.23 405.095C237.624 407.432 232.799 407.51 229.309 404.878C226.28 402.594 224.858 398.465 226.085 394.857C226.245 394.386 226.928 394.469 226.947 394.974C227.177 401.114 232.857 405.843 238.425 402.921C236.037 394.671 237.294 385.458 232.409 378.006C223.763 364.818 205.871 364.273 193.304 371.708C186.691 375.62 181.456 381.502 177.558 388.082L176.435 389.992C174.94 392.544 173.358 395.431 173.048 398.241C172.869 399.863 173.466 401.387 175.321 400.57C176.822 399.909 177.984 398.367 178.876 397.042C180.396 394.781 183.89 396.734 182.634 399.142L182.591 399.22C180.764 402.468 179.638 406.047 179.432 409.775L179.379 410.808C179.345 411.56 179.32 412.63 179.479 412.669C179.669 412.716 180.992 411.185 181.212 410.973C182.273 409.951 183.365 409.116 184.842 408.844C186.783 408.487 188.742 410.896 187.057 412.475L186.986 412.538C185.482 413.85 185.549 416.464 187.211 417.691C189.555 419.421 192.442 416.597 192.782 414.271L192.793 414.185C193.094 411.672 196.574 411.583 196.763 414.185C197.174 419.831 190.471 424.564 185.371 421.715C183.355 420.589 182.073 418.528 181.671 416.319C181.028 416.66 180.333 416.896 179.599 416.962C177.209 417.174 175.51 415.489 175.123 413.226C174.673 410.591 174.94 407.769 175.632 405.032C174.335 405.346 172.969 405.226 171.597 404.432C167.445 402.029 168.637 396.684 170.205 393.076C176.897 377.673 190.764 363.697 207.942 362.587C208.036 359.869 208.404 357.3 209.004 354.579C214.88 327.962 233.915 303.315 258.696 291.795C265.318 288.717 272.34 286.646 279.641 286.129ZM214.655 392.454L214.891 392.401C217.568 391.822 224.613 391.143 223.764 395.661C223.724 395.874 223.416 395.848 223.361 395.661C222.53 392.82 216.879 395.092 215.23 395.776C212.956 396.719 210.712 398.109 208.855 399.725C204.79 403.264 202.064 408.251 201.65 413.668C201.239 419.041 202.793 424.844 206.658 428.731C208.552 430.636 210.97 431.929 213.687 432.025C216.127 432.109 218.823 430.204 221.075 431.32C221.519 431.54 221.871 432.144 221.831 432.641C221.755 433.582 221.335 434.315 220.71 434.883C224.48 441.773 227.566 449.067 232.375 455.333C234.788 458.476 237.522 461.388 240.619 463.865C242.091 465.043 243.691 466.078 245.341 466.986C247.275 468.053 248.948 468.72 250.328 470.526C251.505 472.066 250.328 475.044 248.388 475.309C243.819 475.933 239.38 472.229 236.026 469.454C232.676 466.682 229.78 463.262 227.386 459.633C222.791 452.665 219.647 444.444 218.39 436.128C216.931 436.592 215.288 436.733 214.052 436.736C210.763 436.744 207.623 435.557 205.038 433.552C195.577 426.213 194.526 411.144 201.202 401.641C204.397 397.094 209.252 393.735 214.655 392.454ZM214.715 409.931C216.908 409.738 219.101 410.085 221.163 410.836L222.013 411.145C223.808 411.803 225.72 412.577 227.016 413.927C228.998 415.991 227.025 419.567 224.202 418.776C221.082 417.901 218.546 415.265 215.426 414.16C212.637 413.172 209.479 413.312 207.004 415.013C206.677 415.238 206.248 414.795 206.461 414.468C208.354 411.577 211.343 410.228 214.715 409.931Z" fill="black"/>
<path fill-rule="evenodd" clip-rule="evenodd" d="M323.263 443.073C323.948 441.881 325.525 440.776 326.969 440.946C333.437 441.705 333.425 449.552 330.928 454.134C328.714 458.196 324.131 460.581 319.545 460.233C314.727 459.866 310.621 457.031 308.814 452.52C307.619 449.536 307.067 444.027 310.246 442.022C310.305 441.984 310.402 441.994 310.449 442.048C311.973 443.822 312.033 446.486 313.367 448.462C314.608 450.299 316.536 451.816 318.794 452.051C320.481 452.226 322.187 451.617 322.847 450.101C323.204 449.282 323.163 448.837 323.029 448.272L322.907 447.782C322.485 446.065 322.295 444.757 323.263 443.073ZM324.991 408.657C328.365 410.709 333.504 415.494 329.875 420.581C325.604 425.066 319.455 419.924 316.424 417.598C313.614 415.795 310.457 420.431 313.064 422.536C334.962 438.762 343.849 409.194 326.697 406.244C324.809 405.919 324.108 408.022 324.991 408.657ZM289.372 394.586C291.442 391.477 296.168 391.935 297.309 395.624C297.926 397.623 297.073 399.419 297.117 401.414C297.154 403.1 297.044 404.979 296.528 406.611C295.35 410.335 292.005 412.964 288.047 412.855C284.102 412.746 280.627 410.247 278.975 406.728C277.316 403.195 277.668 399.538 278.878 395.946C278.936 395.773 279.162 395.689 279.298 395.835C280.729 397.357 281.777 398.963 282.861 400.667L283.971 402.414C284.82 403.729 286.054 405.41 287.639 405.304L287.877 405.281C288.317 405.243 288.25 405.33 288.589 404.729C288.747 404.451 288.718 403.934 288.794 403.606L288.82 403.495L288.806 403.436C288.772 403.277 288.739 402.977 288.712 402.458L288.706 402.343C288.592 399.912 287.905 396.789 289.372 394.586ZM341.853 396.656C341.482 392.68 347.067 391.797 348.924 394.739C349.893 396.273 350.174 398.2 350.389 400.026L350.489 400.893C350.709 402.768 350.796 404.719 349.982 406.469C348.701 409.224 345.915 410.68 342.91 410.45C340.04 410.229 337.422 408.563 336.041 406.035C334.811 403.78 333.587 399.375 335.082 397.022C335.172 396.88 335.353 396.861 335.476 396.971C336.889 398.226 337.119 400.515 337.959 402.15C338.825 403.836 340.138 405.48 342.129 405.736C344.034 405.981 344.761 404.94 344.275 403.122C343.649 400.776 342.089 399.18 341.853 396.656ZM290.881 370.947L291.794 370.597C294.923 369.414 299.22 368.046 301.764 370.593C303.334 372.164 303.633 374.477 302.513 376.394C301.155 378.715 298.72 378.773 296.369 379.115C293.695 379.504 290.975 380.243 288.485 381.297C285.68 382.485 283.077 383.966 280.527 385.619C278.104 387.191 275.689 389.759 272.787 390.243C272.669 390.263 272.534 390.212 272.504 390.082C271.845 387.243 273.676 384.449 275.31 382.235C277.287 379.553 279.682 377.352 282.36 375.379C284.944 373.474 287.896 372.098 290.881 370.947ZM347.728 381.04L348.007 380.991C349.905 380.675 351.625 380.748 353.055 382.252C354.147 383.4 354.567 384.887 354.047 386.405C353.567 387.804 352.493 389.226 350.935 389.52C345.673 390.51 339.845 390.347 334.558 389.597C332.138 389.253 329.697 388.833 327.341 388.17L326.257 387.856C324.289 387.293 322.037 386.706 320.608 385.258C320.094 384.738 320.391 383.993 321.005 383.752C323.499 382.774 326.916 383.294 329.575 383.218C332.668 383.129 335.765 382.897 338.843 382.578C341.851 382.265 344.762 381.585 347.728 381.04Z" fill="black"/>
<path fill-rule="evenodd" clip-rule="evenodd" d="M376.86 374.62C376.492 374.559 376.124 374.501 375.756 374.447C375.469 374.284 375.132 374.158 374.74 374.083C373.844 373.855 372.955 373.702 372.067 373.619C359.322 370.749 329.838 374.824 328.621 385.709C324.563 387.065 321.051 385.851 316.347 385.972C312.766 370.993 250.864 373.107 247.887 382.138C247.876 382.135 247.865 382.132 247.853 382.128C244.992 381.242 240.775 381.456 237.501 381.316C230.51 381.169 223.511 381.793 216.671 383.268C203.863 385.306 186.382 387.691 195.29 403.699C195.292 403.701 195.293 403.705 195.295 403.707L195.297 403.706C196.832 405.281 199.437 404.013 199.534 401.881C196.539 394.297 203.304 393.386 208.509 391.207C221.459 386.55 234.644 385.905 248.038 387.345C249.046 388.532 250.575 389.568 252.191 390.11C261.147 391.597 256.427 398.246 262.088 399.213C261.048 422.389 289.162 435.04 305.452 419.805C311.957 413.44 313.507 404.013 315.015 395.515C315.812 395.335 316.319 394.899 316.615 394.321C318.533 392.405 319.738 390.636 323.53 390.11C327.321 389.584 330.24 390.639 330.635 390.963C330.735 391.163 330.842 391.365 330.966 391.566C331.139 391.866 331.375 392.105 331.643 392.293C327.899 415.372 345.8 429.967 363.872 417.997C371.725 410.604 373.384 399.286 373.712 389.183C374.777 388.54 375.451 387.295 375.082 385.728C374.574 383.569 375.765 381.699 377.662 380.76C380.126 379.541 379.69 375.089 376.86 374.62ZM299.206 385.569C296.963 385.075 296.005 388.537 298.255 389.032C299.848 389.382 301.199 390.187 302.111 391.549L302.208 391.697C303.432 393.647 306.528 391.847 305.295 389.885C303.908 387.676 301.752 386.129 299.206 385.569ZM364.906 383.423C364.115 382.865 362.919 383.279 362.46 384.067C361.954 384.934 362.286 385.9 363.026 386.468L363.102 386.523C363.781 387.003 364.443 387.862 364.526 388.742L364.533 388.852C364.622 391.155 368.199 391.167 368.109 388.852C368.022 386.587 366.712 384.695 364.906 383.423Z" fill="black"/>
</g>
<path d="M327.171 219.684C330.369 224.285 332.624 230.047 331.656 235.243C330.716 240.452 326.553 245.094 321.658 248.914C316.762 252.735 311.129 255.665 306.2 254.811C301.282 253.928 297.064 249.194 292.889 244.898C288.727 240.575 284.581 236.68 283.086 231.753C281.619 226.837 282.815 220.862 285.772 215.749C288.712 210.597 293.412 206.306 298.686 205.169C303.988 204.042 309.863 206.068 314.846 208.822C319.856 211.588 323.974 215.083 327.171 219.684Z" fill="#9FD8E5"/>
<path d="M335.115 135.944C340.098 143.136 343.606 152.146 342.086 160.278C340.609 168.427 334.103 175.699 326.455 181.684C318.807 187.67 310.01 192.265 302.318 190.937C294.645 189.566 288.069 182.166 281.562 175.455C275.072 168.699 268.609 162.614 266.285 154.908C264.005 147.22 265.883 137.869 270.507 129.865C275.105 121.799 282.45 115.079 290.683 113.289C298.96 111.517 308.126 114.675 315.897 118.975C323.712 123.293 330.133 128.753 335.115 135.944Z" fill="#9093D1"/>
<path d="M381.076 227.141C382.675 229.44 383.802 232.321 383.318 234.919C382.848 237.524 380.766 239.845 378.319 241.756C375.871 243.665 373.054 245.131 370.59 244.703C368.131 244.263 366.022 241.895 363.935 239.748C361.853 237.586 359.78 235.638 359.033 233.175C358.3 230.717 358.897 227.729 360.376 225.173C361.846 222.597 364.196 220.452 366.833 219.883C369.484 219.32 372.421 220.332 374.912 221.71C377.418 223.092 379.476 224.84 381.076 227.141Z" fill="#9093D1"/>
<path d="M412.34 120.492C414.918 124.2 416.736 128.844 415.955 133.033C415.197 137.231 411.842 140.973 407.895 144.053C403.95 147.132 399.409 149.494 395.437 148.805C391.472 148.094 388.073 144.277 384.707 140.815C381.352 137.331 378.011 134.191 376.806 130.22C375.623 126.258 376.588 121.441 378.97 117.32C381.341 113.167 385.13 109.709 389.38 108.792C393.653 107.884 398.389 109.517 402.405 111.737C406.444 113.966 409.763 116.783 412.34 120.492Z" fill="#9093D1"/>
<path d="M396.231 172.164C399.429 176.765 401.684 182.527 400.716 187.723C399.776 192.932 395.613 197.575 390.717 201.395C385.822 205.215 380.189 208.146 375.26 207.291C370.342 206.409 366.123 201.674 361.949 197.379C357.786 193.056 353.64 189.161 352.146 184.234C350.679 179.318 351.875 173.342 354.831 168.229C357.771 163.077 362.473 158.787 367.746 157.649C373.048 156.523 378.923 158.548 383.906 161.303C388.916 164.069 393.033 167.564 396.231 172.164Z" fill="#F7859C"/>
<path d="M478.765 220.821C483.748 228.012 487.256 237.023 485.736 245.155C484.259 253.303 477.753 260.575 470.105 266.561C462.457 272.546 453.66 277.141 445.968 275.813C438.295 274.442 431.719 267.043 425.212 260.331C418.723 253.576 412.259 247.49 409.935 239.784C407.656 232.097 409.533 222.745 414.157 214.741C418.755 206.675 426.1 199.955 434.333 198.165C442.61 196.394 451.777 199.552 459.548 203.851C467.363 208.169 473.783 213.629 478.765 220.821Z" fill="#FFDBB4"/>
<path d="M1260.18 231.212C1309.95 263.228 1355.28 310.462 1367.01 365.302C1379.06 420.144 1357.5 482.592 1325.49 539.97C1293.47 597.347 1250.67 649.018 1199.32 660.747C1147.97 672.159 1087.74 642.995 1029.72 617.952C971.714 592.592 915.604 571.353 881.051 529.192C846.815 487.031 834.135 423.63 842.06 361.498C849.668 299.05 877.881 237.869 924.48 205.218C971.396 172.567 1036.7 168.446 1096.29 175.103C1156.21 181.76 1210.41 199.195 1260.18 231.212Z" fill="#FFDBB4"/>
<path fill-rule="evenodd" clip-rule="evenodd" d="M1061.95 584.378C1068 555.681 1089.48 533.411 1118.37 522.318C1123.92 519.177 1129.3 505.699 1136.77 503.231C1137.96 502.835 1136.07 505.983 1136.77 506.171C1139.23 506.842 1142 506.912 1144.72 504.491C1149.59 500.161 1151.12 487.513 1154.08 481.796C1169.7 451.648 1208.69 463.444 1213.91 496.772C1217.55 499.147 1222.7 501.238 1226.66 503.152C1230.74 505.122 1234.34 509.894 1238.54 511.601C1242.3 513.123 1248.48 512.044 1252.26 513.371C1269.66 519.475 1284.4 527.177 1295.95 542.782C1298.38 546.073 1301.13 550.12 1303.34 553.445C1314.76 566.594 1322.69 581.332 1330 597.143C1350.43 643.553 1355.99 694.94 1360.98 744.945C1360.87 753.694 1366.67 777.955 1358.09 782.149C1358.6 782.681 1358.42 783.75 1357.46 783.741C1335.7 783.521 1313.98 785.47 1292.55 789.257C1282.21 791.086 1271.92 793.592 1261.39 794.005C1239.53 793.853 1217.74 790.189 1195.91 793.656C1169.66 793.656 1137.76 792.892 1108.56 791.768C1081.27 790.72 1053.83 793.089 1026.88 788.447C1024.75 788.11 1023.7 785.506 1024.15 783.642C1027.31 772.116 1028.87 760.255 1030.64 748.459C1030.29 740.892 1030.92 732.993 1033.72 725.946C1041.03 678.372 1050.4 631.108 1061.95 584.378Z" fill="#FFDBB4"/>
<path fill-rule="evenodd" clip-rule="evenodd" d="M1136.77 506.347C1136.07 506.158 1137.96 503.009 1136.77 503.405C1129.3 505.873 1123.92 519.352 1118.37 522.493C1089.48 533.586 1068 555.855 1061.95 584.553C1050.4 631.282 1041.03 678.546 1033.72 726.121C1030.92 733.169 1030.29 741.067 1030.64 748.633L1030.36 750.496C1028.7 761.677 1027.15 772.897 1024.15 783.816C1023.7 785.682 1024.75 788.284 1026.88 788.621C1053.53 793.211 1080.65 790.947 1107.63 791.908L1113.26 792.119C1141.15 793.145 1171.06 793.831 1195.91 793.831C1217.74 790.363 1239.53 794.028 1261.39 794.179C1271.92 793.766 1282.21 791.26 1292.55 789.432C1313.98 785.644 1335.7 783.696 1357.46 783.915C1358.42 783.924 1358.6 782.856 1358.09 782.323C1366.67 778.129 1360.87 753.869 1360.98 745.12L1360.53 740.615C1355.65 692.036 1349.82 642.336 1330 597.317L1329.4 596.037C1322.26 580.71 1314.45 566.413 1303.34 553.619L1302.66 552.602C1300.58 549.492 1298.14 545.919 1295.95 542.956C1284.4 527.352 1269.66 519.65 1252.26 513.546C1248.48 512.218 1242.3 513.297 1238.54 511.775C1234.61 510.179 1231.21 505.901 1227.45 503.742V519.845L1173 573.495L1142.12 526.13L1138.98 506.732C1138.22 506.685 1137.48 506.541 1136.77 506.347Z" fill="#8FA7DF"/>
<path fill-rule="evenodd" clip-rule="evenodd" d="M1070.76 646.912C1071.33 649.709 1072.14 652.506 1073.21 655.156C1074.25 657.713 1075.8 660.004 1076.88 662.531C1077.02 662.871 1077.26 663.128 1077.54 663.324L1077.45 664.012L1077.37 664.7C1076.83 669.338 1076.23 673.963 1075.71 678.6L1075.46 680.92C1074.43 690.603 1072.81 700.24 1071.56 709.897C1070.33 719.353 1069.08 728.81 1067.74 738.253C1066.35 747.989 1064.94 757.712 1063.3 767.408C1062.6 771.503 1061.88 775.595 1061.13 779.684L1060.54 782.813C1054.54 784.257 1052.9 792.627 1059.01 795.717C1061.78 797.113 1065.35 796.777 1067.64 794.583C1070.01 792.295 1070.11 788.171 1070.66 785.073L1071.19 782.194C1075.17 760.547 1078.62 738.652 1080.23 716.699C1080.65 711.031 1081 705.358 1081.22 699.68C1081.44 694.34 1081.33 689 1081.42 683.66L1081.44 682.203C1081.57 676.508 1081.47 670.822 1081.32 665.127C1081.3 664.433 1081.27 663.739 1081.24 663.041C1081.44 662.806 1081.58 662.526 1081.64 662.256L1081.72 661.898C1081.92 660.977 1081.69 659.899 1080.99 659.24C1080.68 655.361 1080.28 651.486 1080.17 647.61C1080.16 647.292 1079.7 647.301 1079.68 647.61C1079.42 650.909 1078.91 654.217 1078.39 657.521C1075.08 654.859 1072.63 650.468 1071.19 646.794C1071.08 646.528 1070.69 646.624 1070.76 646.912ZM1149.1 492.682C1148.56 495.196 1147.47 497.453 1146.01 499.551C1145.32 500.555 1144.53 501.489 1143.58 502.27C1142.77 502.938 1141.84 503.374 1140.98 503.955C1139.72 503.758 1138.41 504.234 1137.53 505.159L1137.67 503.806C1137.71 503.37 1136.99 503.283 1136.91 503.705C1133.09 522.96 1129.61 542.227 1126.59 561.621L1125.27 570.185L1124.03 578.225C1121.97 591.623 1119.97 605.015 1118.47 618.511C1116.47 636.522 1114.78 654.579 1113.55 672.663C1112.32 690.874 1111.56 709.098 1111.02 727.343C1110.88 731.944 1110.74 736.538 1110.6 741.138L1109.67 735.639C1108.74 730.139 1107.82 724.634 1107.04 719.109C1104.24 699.336 1101.99 679.423 1100.9 659.48C1099.9 641.23 1100.23 622.618 1104.87 604.839C1106.04 600.367 1107.47 595.963 1109.2 591.673C1110.88 587.501 1113.16 583.635 1114.97 579.525C1117.06 574.742 1117.69 570.229 1116.61 565.08C1115.67 560.594 1114.01 556.374 1113.72 551.757C1113.16 543.186 1115.95 534.885 1119.89 527.385C1120.93 525.408 1122.02 523.457 1123.17 521.524C1126.63 515.68 1130.53 510.05 1134.58 504.653C1134.79 504.365 1134.33 504.046 1134.1 504.282C1130.41 507.931 1126.37 511.518 1123.05 515.502C1121.44 517.439 1119.86 519.416 1118.37 521.446C1102 524.182 1087.93 534.379 1078.32 547.847C1067.4 563.129 1061.89 581.524 1057.8 599.637C1053.26 619.769 1049.43 640.083 1045.35 660.313C1041.13 681.248 1036.93 702.182 1032.68 723.11C1030.56 733.5 1028.45 743.891 1026.35 754.286C1025.28 759.549 1024.15 764.799 1022.98 770.044C1022.38 772.732 1021.73 775.417 1021.18 778.114C1020.55 781.155 1021.13 783.1 1023.19 785.335C1023.95 786.165 1025.15 786.151 1026.09 785.711L1026.39 785.572L1026.67 785.434C1027.84 784.861 1028.75 784.268 1029.48 782.991C1030.28 781.592 1030.4 780.038 1030.68 778.48C1031.18 775.612 1031.69 772.745 1032.19 769.874C1032.95 765.58 1033.77 761.298 1034.61 757.018L1038.81 735.624C1039.93 729.921 1041.05 724.217 1042.17 718.516C1046.2 698.127 1050.23 677.743 1054.26 657.359C1058.13 637.787 1061.56 618.08 1065.96 598.621L1066.22 597.525L1066.47 596.43C1070.41 579.654 1075.92 563.427 1085.9 549.213C1093.59 538.281 1104.27 528.519 1116.84 523.579C1115.96 524.854 1115.1 526.154 1114.29 527.481C1109.2 535.807 1105.48 545.691 1106.35 555.606C1106.78 560.45 1108.62 565.211 1108.44 570.095C1108.28 574.432 1105.6 578.242 1103.74 582.016C1099.53 590.57 1096.49 599.66 1094.52 608.985C1090.58 627.711 1090.6 646.978 1091.96 665.987C1093.43 686.65 1096.23 707.309 1099.42 727.771C1101.06 738.265 1103.23 748.674 1104.9 759.152C1105.72 764.318 1106.85 769.473 1107.83 774.614L1108.3 777.069C1108.56 778.433 1108.83 779.791 1109.14 781.135L1109.34 781.94V782.084C1109.35 783.075 1109.62 783.895 1110.05 784.55C1110.65 786.465 1111.39 788.334 1112.38 790.127C1112.88 791.043 1113.62 791.557 1114.42 791.746C1115.22 793.584 1117.04 794.997 1119.21 794.988L1147.78 794.879C1164.38 794.814 1180.98 794.705 1197.57 794.612C1201.76 794.591 1205.94 794.513 1210.13 794.403C1214.05 794.294 1217.81 793.823 1221.69 793.335C1226.07 792.785 1228.44 789.681 1227.79 785.305C1227.65 784.34 1227.49 783.381 1227.34 782.42C1228.21 782.709 1229.25 782.573 1229.95 781.888L1230.61 781.243C1231.53 780.34 1232.34 779.453 1232.92 778.248C1233.52 777.009 1234 775.7 1234.53 774.434C1235.67 771.711 1236.78 768.979 1237.86 766.234C1240.01 760.745 1242.17 755.233 1244.18 749.686C1248.16 738.702 1251.67 727.552 1254.73 716.276C1260.18 696.159 1264.13 675.653 1266.62 654.964L1267.21 650.033L1267.38 648.576C1268.33 640.557 1269.12 632.414 1268.75 624.411C1268.51 619.402 1267.74 614.353 1265.87 609.674C1264.14 605.359 1261.47 601.667 1258.94 597.809L1258.65 597.364L1258.36 596.908C1256.14 593.404 1254.37 589.741 1254.29 585.486C1254.2 581.168 1255.45 576.966 1256.86 572.923L1257.21 571.926L1257.45 571.265C1260.44 562.911 1263.84 554.674 1262.72 545.582C1261.06 532.194 1252.95 521.402 1242.74 513.08C1251.82 514.877 1260.8 518.43 1268.74 522.933C1278.1 528.257 1286.54 535.283 1293.81 543.212C1307.55 558.197 1317.37 576.177 1325.4 594.742C1333.8 614.169 1340.04 634.527 1344.74 655.152C1349.46 675.893 1352.63 696.966 1354.79 718.123C1355.86 728.652 1356.71 739.208 1357.41 749.769C1357.77 755.181 1358.04 760.601 1358.46 766.003C1358.88 771.401 1359.07 776.882 1360.38 782.137C1361 784.585 1365.15 784.833 1365.59 782.137C1366.58 776.114 1366.3 769.885 1366.03 763.786L1366 763.232C1365.73 757.158 1365.38 751.088 1364.96 745.018C1364.11 732.611 1362.96 720.221 1361.47 707.872C1356.24 664.52 1346.59 621.396 1327.67 581.824C1318.76 563.186 1307.33 545.076 1291.42 531.617C1283.85 525.216 1275.31 520.105 1266.11 516.405C1257.88 513.093 1249.52 511.526 1240.77 511.53C1236.39 508.17 1231.68 505.242 1226.98 502.742C1226.7 502.589 1226.4 502.956 1226.63 503.191C1226.76 503.308 1226.87 503.43 1227 503.545C1226.46 503.579 1225.91 503.828 1225.42 504.348C1223.69 506.159 1222.24 508.423 1220.93 510.775C1218.95 513.254 1217.05 515.816 1215.07 518.268C1211.9 522.195 1208.65 526.066 1205.37 529.906C1199.85 536.36 1194.15 542.692 1188.21 548.769L1187.22 549.78C1184.14 552.9 1181.02 556.635 1177.38 559.105L1177.18 559.234C1175.65 560.236 1174.56 560.419 1173.24 558.923C1172.05 557.561 1171.06 555.981 1170.04 554.48L1169.81 554.136C1164.6 546.573 1159.78 538.731 1155.41 530.658C1153.42 526.984 1151.53 523.256 1149.73 519.488L1149.19 518.355C1148.21 516.279 1147.15 514.24 1146.35 512.102C1146.16 511.601 1145.98 511.099 1145.8 510.601C1148.55 508.799 1150.67 504.898 1151.45 501.843C1152.25 498.67 1151.84 495.414 1150.41 492.512C1150.14 491.967 1149.24 492.102 1149.1 492.682ZM1284.7 621.605C1285.08 633.667 1285.31 645.742 1285.88 657.796L1286.07 661.91C1285.19 662.897 1284.67 664.036 1285.08 665.598C1285.25 666.197 1285.72 666.737 1286.31 666.939L1286.5 670.764C1287.34 687.978 1288.33 705.155 1290.13 722.325C1292.39 743.813 1295 765.265 1297.6 786.715C1297.97 789.752 1300.08 792.16 1303.37 791.716C1306.69 791.266 1308.04 788.372 1307.61 785.357C1305.89 773.527 1304.24 761.688 1302.8 749.817L1301.15 736.295C1299.09 719.39 1296.98 702.488 1294.55 685.637C1293.53 678.595 1292.47 671.555 1291.41 664.516L1291.79 664.036C1293.3 662.068 1294.87 660.143 1296.42 658.207C1299.39 654.47 1302.33 650.766 1305.05 646.855C1305.19 646.659 1304.91 646.371 1304.72 646.519C1300.9 649.343 1297.28 652.362 1293.64 655.431L1290.45 658.127C1288.62 645.965 1286.81 633.799 1285.19 621.605C1285.15 621.301 1284.69 621.278 1284.7 621.605ZM1229.72 506.171C1232.02 508.34 1234.37 510.462 1236.69 512.617L1237.54 513.411L1238.38 514.207C1242.46 518.07 1246.36 522.09 1249.61 526.709C1255.58 535.188 1259.13 545.525 1256.65 555.876C1254.59 564.451 1249.87 572.224 1248.6 581.013C1247.96 585.415 1248.27 589.841 1249.93 594C1251.62 598.242 1254.33 601.876 1256.76 605.704C1262.03 614.021 1262.75 623.151 1262.23 632.787C1261.68 642.849 1260.53 652.917 1259.1 662.889C1256.21 683.093 1251.86 703.089 1246.09 722.67C1243.21 732.476 1239.8 742.072 1236.41 751.707C1234.72 756.504 1232.75 761.186 1230.73 765.846C1229.66 768.299 1228.56 770.738 1227.45 773.172C1227.86 769.734 1227.86 766.204 1228.06 762.787C1228.35 757.89 1228.72 753.004 1229.05 748.111C1229.74 738.184 1230.35 728.247 1230.89 718.31C1232.83 682.875 1234.25 647.409 1234.14 611.918C1234.09 594.17 1233.73 576.422 1232.96 558.691C1232.61 550.342 1231.91 542 1231.29 533.661L1231.15 531.876C1230.6 524.391 1229.94 516.89 1228.8 509.471C1229.13 508.71 1229.43 507.94 1229.65 507.15L1229.72 506.853L1229.67 506.861C1229.72 506.629 1229.74 506.399 1229.72 506.171ZM1209.84 475.677C1209.79 475.472 1209.5 475.489 1209.44 475.677C1208.15 480.041 1208.61 484.84 1209.72 489.231C1210.32 491.609 1211.18 493.918 1212.21 496.144L1212.58 496.923C1213.46 498.817 1214.46 500.77 1216.18 501.952C1216.9 502.444 1218.19 502.475 1218.91 501.952L1219.28 501.673C1219.34 501.626 1219.4 501.577 1219.46 501.528C1220.13 500.965 1220.46 499.721 1220.15 498.901C1219.35 496.785 1217.54 495.231 1216.29 493.346C1215.18 491.67 1214.2 489.902 1213.38 488.065C1211.63 484.09 1210.84 479.871 1209.84 475.677Z" fill="black"/>
<path fill-rule="evenodd" clip-rule="evenodd" d="M1179.32 317.494C1154.6 317.494 1129.03 336.701 1119.97 348.957C1109.49 363.129 1101.23 431.161 1105.1 454.245C1108.98 477.33 1128.24 502.491 1161.68 502.491C1195.11 502.491 1215.46 498.363 1216.28 492.367C1216.82 488.37 1224.17 475.246 1238.33 452.996C1252.81 448.914 1260.08 441.997 1260.14 432.245C1260.19 422.494 1256.31 415.844 1248.5 412.296C1251.28 373.812 1249.17 349.561 1242.15 339.542C1231.62 324.513 1204.04 317.494 1179.32 317.494Z" fill="#FFDBB4"/>
<path fill-rule="evenodd" clip-rule="evenodd" d="M1195.99 280.22C1192.66 276.298 1186.8 280.005 1186.93 284.291C1185.61 284.651 1184.04 285.893 1183.44 287.513C1182.13 287.428 1180.81 287.688 1179.63 288.369L1179.38 288.06C1175.26 283.028 1169.82 278.71 1164.21 282.415C1162.68 283.424 1161.99 285.091 1162.33 286.897L1162.36 287.025L1162.23 286.467C1162.11 285.937 1162.3 286.998 1162.37 287.222L1162.38 287.248C1162.52 287.625 1162.67 287.816 1162.81 288.101C1157.06 284.007 1148.3 286.404 1152.92 294.328L1151.04 293.595C1144.55 291.081 1136.48 288.382 1130.57 292.902C1127.92 295.452 1130.86 298.852 1133.55 299.676L1133.09 299.598C1127.92 298.718 1117.13 296.543 1115.59 303.29C1115.03 305.717 1116.65 307.491 1118.69 308.468C1114.37 308.452 1110.12 309.165 1106.38 311.276C1102.83 313.806 1105.7 317.992 1109.42 317.81C1108.27 319.237 1107.88 321.652 1109 323.194C1106.89 323.75 1104.94 324.464 1103.14 325.577L1102.65 325.641C1099.06 326.09 1094.97 326.357 1093 329.888C1090.09 337.551 1100.43 337.246 1104.87 334.555C1104.61 334.984 1104.41 335.453 1104.31 335.953L1102.87 336.358C1097.44 337.871 1091.3 339.542 1087.8 344.121C1086.2 346.755 1088.43 351.233 1091.78 350.433C1082.7 354.765 1086.18 366.176 1095.06 360.24C1095.47 360.625 1095.98 360.911 1096.51 361.037L1094.63 362.055C1089.88 364.665 1084.16 368.238 1085.15 374.164C1086.09 377.3 1090.43 376.727 1092.64 375.527C1088.79 378.849 1085.15 382.446 1081.85 386.335L1080.93 387.425C1078.36 390.512 1073.89 396.194 1078.73 399.163C1084.7 402.208 1087.68 393.216 1091.15 390.007C1088.37 396.553 1097.4 401.119 1100.55 394.525C1101.08 394.618 1101.61 394.628 1102.13 394.557C1099.41 397.442 1092.07 417.185 1101.21 412.855C1102.66 411.313 1103.94 409.626 1105.11 407.856C1103.64 419.168 1102.57 430.533 1101.88 441.906L1101.63 446.028C1101.38 450.305 1101.19 454.599 1101.67 458.861C1102.22 463.823 1103.64 468.479 1105.8 472.974C1107.78 477.12 1110.34 480.96 1113.27 484.491C1114.84 486.38 1116.5 488.218 1118.55 489.6C1120.18 490.7 1122.08 491.425 1123.92 492.123C1126.9 495.107 1130.72 497.364 1134.46 499.166C1140.63 502.13 1147.31 503.766 1154.07 504.586C1160.99 505.42 1167.97 505.219 1174.83 504.028C1181.38 502.893 1188.4 499.991 1192.44 494.462C1192.79 493.986 1192.14 493.537 1191.71 493.733C1180 499.166 1166.84 500.584 1154.07 498.87C1148.12 498.071 1142.26 496.422 1136.82 493.86C1132.23 491.7 1128.36 488.558 1124.24 485.713C1123.44 484.643 1122.63 483.591 1121.71 482.614L1120.27 481.1C1119.19 479.962 1118.13 478.809 1117.17 477.565C1114.2 473.729 1111.74 469.378 1110.12 464.801C1106.96 455.89 1107.81 446.217 1108.37 436.931L1108.42 436.112C1108.99 426.18 1109.93 416.282 1111.23 406.42C1111.77 402.316 1112.37 398.218 1113.03 394.13C1114.08 392.412 1115.2 390.75 1116.46 389.193C1115.44 393.184 1118.99 398.734 1123.34 396.1C1128.32 391.83 1128.08 384.938 1132.26 379.71C1136.59 373.007 1166.46 359.971 1175.34 358.141C1173.91 360.227 1171.29 361.68 1170.68 364.142C1159.76 373.815 1177.56 378.964 1183.12 365.179C1183 369.768 1182.54 374.318 1181.52 378.797C1180.03 382.911 1178.87 394.831 1186.31 391.234C1189.87 392.265 1192.58 389.224 1193.03 385.795C1195.6 393.545 1193.17 405.929 1197.89 411.641C1199.33 413.143 1201.57 412.143 1202.32 410.427C1206.68 409.282 1206.31 404.185 1206.84 400.537C1210.82 415.078 1215.8 425.172 1216.48 440.34C1213.4 444.733 1220.15 447.963 1223.05 444.443C1227.12 438.554 1223.37 430.502 1222.41 424.054C1223.56 423.995 1224.69 423.486 1225.63 422.374C1226.15 424.397 1225.85 427.062 1225.68 429.258C1228.26 439.364 1238.06 432.891 1237.66 424.692C1238.08 427.006 1238.4 429.342 1238.61 431.695C1236.71 433.879 1235.31 436.493 1234.48 439.267C1233.88 441.272 1235.91 442.474 1237.47 442.183C1238.29 445.007 1241.87 447.044 1244.23 444.345C1246.56 441.985 1246.96 438.575 1247.15 435.18C1247.47 434.834 1247.67 434.382 1247.63 433.834C1247.61 433.319 1247.48 432.884 1247.28 432.516C1247.32 431.822 1247.37 431.141 1247.44 430.483C1249.25 436.101 1248.07 441.989 1247.92 447.744C1244.73 449.54 1241.1 450.308 1237.45 451.066L1236.92 451.176C1235.79 451.412 1235.44 453.096 1236.28 453.803C1234.02 456.02 1232.07 458.665 1230.17 461.104C1227.65 464.341 1225.23 467.705 1222.88 471.076L1221.5 473.057C1217.47 478.81 1211.9 486.603 1214.39 493.689C1214.73 494.662 1216.15 495.012 1216.71 493.99C1218.52 490.63 1219.54 486.929 1221.26 483.53C1222.95 480.196 1225.06 477.106 1227.15 474.017L1228.36 472.227C1230.36 469.236 1232.35 466.214 1234.19 463.134L1235.48 461C1236.68 458.987 1237.88 456.906 1238.77 454.742C1241.93 455.507 1245.24 454.958 1248.28 453.635L1248.32 453.846L1248.39 454.227C1248.83 456.056 1251.35 457.306 1252.95 456.109C1256.8 453.2 1258.37 448.871 1258.78 444.241C1259.56 442.933 1260.21 441.553 1260.75 440.123C1261 442.974 1262.1 445.738 1265.48 445.653C1271.35 445.17 1271.93 439.615 1270.34 434.09C1277.29 436.217 1278.1 426.369 1275.91 421.179C1276.72 420.936 1277.48 420.45 1277.91 419.795L1278.27 420.428C1279.6 422.745 1281.12 424.994 1283.23 426.197C1286.17 427.877 1290.46 425.796 1290.26 422.096C1289.63 416.068 1284.36 411.475 1281.15 406.644C1281.72 406.725 1282.31 406.704 1282.9 406.596C1289.31 410.183 1292.37 401.74 1290.11 396.848C1288.46 392.454 1285.46 388.675 1282.25 385.343L1283.19 385.907C1284.89 386.911 1286.78 387.879 1288.65 387.485C1300.87 395.535 1304.89 381.997 1291.17 377.766L1291.18 377.703C1292.55 376.372 1293.15 374.266 1292.08 372.163C1297.11 373.934 1304.29 369.927 1299.86 364.45C1296.97 361.721 1293.55 359.372 1289.77 358.144C1289.96 357.139 1290.02 356.116 1289.94 355.087L1290.17 355.118C1292.56 355.462 1295.5 356.44 1296.97 353.862C1297.72 352.564 1297.63 350.426 1296.41 349.416C1292.19 345.942 1287.38 343.052 1282.16 341.88C1281.96 341.243 1281.77 340.609 1281.55 339.978C1286.01 339.895 1291.02 333.961 1285.9 330.599C1281.39 328.3 1276.76 326.822 1271.67 326.959C1274.65 324.014 1272.9 318.676 1268.93 317.855C1271.53 312.317 1265.12 309.46 1260.34 310.333C1260.51 307.873 1259.2 305.131 1256.67 304.513C1258 296.727 1249.77 297.464 1244.62 299.309C1246.34 296.308 1244.57 292.776 1241.52 291.724C1236.54 290.593 1231.77 295.353 1227.97 298.272C1229.27 295.226 1228.18 292.419 1225.09 291.205C1221.92 289.96 1218.5 292.367 1215.85 294.003C1214.4 292.189 1211.94 291.598 1209.74 291.71C1209.5 291.029 1209.16 290.46 1208.71 290.011C1208.72 285.814 1201.6 283.507 1199.11 287.416C1198.68 284.698 1197.57 282.082 1195.99 280.22ZM1106.8 356.342L1106.72 356.794C1106.61 356.887 1106.51 356.986 1106.41 357.081C1106.09 357.157 1105.79 357.236 1105.5 357.318C1105.92 356.974 1106.36 356.655 1106.8 356.342ZM1101.3 345.328L1101.39 345.462C1101.41 345.484 1101.43 345.506 1101.45 345.527C1101.18 345.629 1100.91 345.733 1100.64 345.841L1100.24 346.005L1100.1 346.067C1100.5 345.817 1100.9 345.57 1101.3 345.328ZM1165.47 289.881L1165.71 289.941C1165.79 289.959 1165.86 289.977 1165.93 289.993C1165.95 289.999 1165.97 290.002 1166 290.011L1165.93 289.997C1166.05 290.084 1166.2 290.186 1166.32 290.268C1166.2 290.258 1166.08 290.246 1165.96 290.239C1165.79 290.119 1165.63 290 1165.47 289.881Z" fill="black"/>
<path fill-rule="evenodd" clip-rule="evenodd" d="M1142.49 462.417C1141.82 461.252 1140.28 460.174 1138.87 460.34C1132.55 461.08 1132.57 468.741 1135 473.213C1137.17 477.179 1141.64 479.506 1146.12 479.166C1150.83 478.809 1154.84 476.042 1156.6 471.638C1157.77 468.725 1158.31 463.348 1155.21 461.39C1155.15 461.353 1155.05 461.363 1155.01 461.415C1153.52 463.147 1153.46 465.748 1152.16 467.676C1150.94 469.47 1149.06 470.951 1146.86 471.179C1145.21 471.35 1143.54 470.756 1142.9 469.277C1142.55 468.477 1142.59 468.042 1142.72 467.491L1142.84 467.013C1143.25 465.336 1143.44 464.061 1142.49 462.417ZM1140.8 428.821C1137.51 430.824 1132.49 435.494 1136.03 440.461C1140.2 444.839 1146.21 439.819 1149.17 437.548C1151.92 435.788 1155 440.314 1152.45 442.369C1131.06 458.208 1122.39 429.345 1139.14 426.466C1140.98 426.148 1141.67 428.201 1140.8 428.821ZM1175.59 415.085C1173.57 412.051 1168.96 412.498 1167.84 416.099C1167.24 418.05 1168.07 419.803 1168.03 421.752C1167.99 423.397 1168.1 425.231 1168.6 426.824C1169.75 430.459 1173.02 433.025 1176.89 432.919C1180.74 432.813 1184.14 430.374 1185.75 426.938C1187.37 423.489 1187.03 419.92 1185.84 416.413C1185.79 416.244 1185.57 416.162 1185.43 416.304C1184.04 417.791 1183.01 419.358 1181.95 421.022L1180.87 422.727C1180.04 424.011 1178.84 425.65 1177.29 425.548L1177.05 425.526C1176.62 425.488 1176.69 425.574 1176.36 424.987C1176.21 424.715 1176.23 424.211 1176.16 423.891L1176.13 423.783L1176.15 423.724C1176.18 423.569 1176.21 423.277 1176.24 422.77L1176.24 422.657C1176.36 420.285 1177.03 417.236 1175.59 415.085ZM1124.33 417.106C1124.7 413.225 1119.24 412.363 1117.43 415.234C1116.48 416.732 1116.21 418.614 1116 420.396L1115.9 421.242C1115.68 423.073 1115.6 424.978 1116.39 426.685C1117.64 429.374 1120.37 430.796 1123.3 430.571C1126.1 430.356 1128.66 428.73 1130.01 426.261C1131.21 424.06 1132.41 419.76 1130.95 417.464C1130.86 417.324 1130.68 417.307 1130.56 417.414C1129.18 418.639 1128.96 420.873 1128.14 422.47C1127.29 424.116 1126.01 425.72 1124.06 425.97C1122.2 426.209 1121.49 425.193 1121.97 423.419C1122.58 421.128 1124.1 419.57 1124.33 417.106ZM1174.12 392.011L1173.23 391.669C1170.17 390.514 1165.98 389.179 1163.49 391.665C1161.96 393.198 1161.66 395.456 1162.76 397.327C1164.09 399.593 1166.46 399.649 1168.76 399.983C1171.37 400.363 1174.03 401.085 1176.46 402.114C1179.2 403.273 1181.74 404.718 1184.23 406.333C1186.6 407.867 1188.96 410.374 1191.79 410.846C1191.91 410.865 1192.04 410.816 1192.07 410.689C1192.71 407.917 1190.93 405.191 1189.33 403.028C1187.4 400.411 1185.06 398.263 1182.44 396.337C1179.92 394.478 1177.04 393.134 1174.12 392.011ZM1118.6 401.863L1118.32 401.815C1116.47 401.506 1114.79 401.577 1113.39 403.046C1112.33 404.166 1111.92 405.618 1112.42 407.099C1112.89 408.465 1113.94 409.854 1115.46 410.14C1120.6 411.108 1126.29 410.947 1131.46 410.215C1133.82 409.88 1136.21 409.47 1138.51 408.823L1139.57 408.516C1141.49 407.967 1143.69 407.393 1145.08 405.98C1145.59 405.472 1145.3 404.745 1144.7 404.51C1142.26 403.555 1138.92 404.063 1136.33 403.989C1133.31 403.902 1130.28 403.676 1127.27 403.364C1124.34 403.059 1121.49 402.394 1118.6 401.863Z" fill="black"/>
<path fill-rule="evenodd" clip-rule="evenodd" d="M1101.76 431.479C1107.05 436.954 1115.9 438.524 1122.94 435.588C1141.04 428.026 1132.18 404.439 1118.23 398.105C1116.48 397.67 1114.15 396.639 1112.03 396.405C1111.84 396.311 1111.42 396.584 1110.92 396.325C1095.53 398.044 1092.02 421.937 1101.76 431.479ZM1160.12 432.88C1166.06 440.761 1177.11 443.194 1186.13 439.529C1203.96 432.507 1197.64 411.592 1185.44 403.392C1159.67 393.707 1149.03 418.348 1160.12 432.88ZM1198.77 415.417C1198.79 415.409 1198.8 415.404 1198.82 415.397C1198.73 415.355 1198.63 415.314 1198.54 415.272C1198.57 415.352 1198.6 415.431 1198.63 415.51C1198.68 415.479 1198.72 415.441 1198.77 415.417ZM1089.49 406.897C1090.95 406.9 1093.05 407.139 1094.25 408.148C1097.22 398.132 1108.18 388.861 1117.71 395.621C1125.22 398.035 1130.79 403.391 1133.96 410.51C1139.66 407.114 1148.64 408.564 1153.59 413.055C1156.83 402.342 1164.81 398.59 1174.3 398.035C1184.67 396.338 1195 406.406 1198.22 414.483C1200.9 414.177 1204.91 413.325 1207.43 414.979C1223.79 410.687 1252.4 408.32 1255.73 410.704C1258.1 411.615 1259.4 417.212 1256.09 417.513C1253.2 417.104 1256.43 413.413 1253.52 413.01C1238.02 412.049 1222.97 415.171 1207.64 416.48C1206.27 418.323 1201.85 418.939 1199.49 418.199C1203.2 431.9 1195.18 441.221 1183.16 444.014C1164.54 448.29 1148.35 431.634 1153.22 414.309C1147.58 411.503 1141.09 411.624 1134.95 413.102C1145.21 450.889 1084.37 449.193 1093.87 409.444C1087.55 412.59 1086.17 407.532 1089.49 406.897Z" fill="black"/>
<path d="M1022.54 628.957C1022.37 626.306 1022.87 623.413 1024.53 621.538C1026.19 619.651 1029.01 618.781 1031.93 618.425C1034.84 618.069 1037.84 618.255 1039.63 619.808C1041.4 621.368 1041.95 624.323 1042.59 627.088C1043.22 629.863 1043.94 632.459 1043.34 634.827C1042.73 637.183 1040.79 639.319 1038.34 640.674C1035.89 642.05 1032.93 642.645 1030.52 641.817C1028.1 640.979 1026.21 638.72 1024.87 636.384C1023.52 634.035 1022.71 631.608 1022.54 628.957Z" fill="#9093D1"/>
<path d="M906.269 666.503C905.933 661.201 906.928 655.415 910.255 651.665C913.567 647.891 919.211 646.152 925.045 645.44C930.879 644.728 936.874 645.099 940.447 648.204C943.997 651.325 945.095 657.235 946.372 662.767C947.627 668.314 949.077 673.507 947.875 678.243C946.656 682.956 942.762 687.227 937.865 689.939C932.962 692.689 927.055 693.878 922.228 692.225C917.384 690.549 913.618 686.031 910.932 681.357C908.23 676.66 906.606 671.806 906.269 666.503Z" fill="#F7859C"/>
<path d="M973.002 732.356C972.665 727.053 973.66 721.268 976.988 717.517C980.299 713.744 985.943 712.005 991.778 711.293C997.611 710.581 1003.61 710.952 1007.18 714.056C1010.73 717.176 1011.83 723.087 1013.1 728.618C1014.36 734.167 1015.81 739.36 1014.61 744.096C1013.39 748.807 1009.49 753.08 1004.6 755.79C999.694 758.541 993.788 759.73 988.961 758.077C984.116 756.401 980.35 751.883 977.665 747.209C974.962 742.511 973.339 737.658 973.002 732.356Z" fill="#F7859C"/>
<path d="M940.345 586.342C939.831 578.061 941.401 569.023 946.613 563.157C951.799 557.255 960.627 554.525 969.75 553.398C978.873 552.272 988.246 552.837 993.823 557.676C999.365 562.542 1001.07 571.77 1003.05 580.406C1005 589.068 1007.25 597.174 1005.36 604.573C1003.44 611.936 997.345 618.619 989.682 622.864C982.01 627.172 972.773 629.045 965.23 626.475C957.661 623.869 951.785 616.822 947.598 609.529C943.384 602.199 940.858 594.623 940.345 586.342Z" fill="#9FD8E5"/>
<path d="M970.141 666.504C969.804 661.202 970.799 655.416 974.127 651.665C977.438 647.892 983.083 646.153 988.917 645.441C994.75 644.729 1000.75 645.1 1004.32 648.204C1007.87 651.326 1008.97 657.236 1010.24 662.768C1011.5 668.315 1012.95 673.508 1011.75 678.244C1010.53 682.956 1006.63 687.228 1001.74 689.939C996.833 692.689 990.927 693.878 986.1 692.225C981.255 690.549 977.489 686.031 974.804 681.357C972.101 676.661 970.478 671.807 970.141 666.504Z" fill="#FFDBB4"/>
<defs>
<clipPath id="clip0_1_34">
<rect width="634" height="634" fill="white" transform="translate(-94 301)"/>
</clipPath>
<clipPath id="clip1_1_34">
<rect width="360" height="514" fill="white" transform="translate(65 286)"/>
</clipPath>
</defs>
</svg>
