<svg width="1572" height="879" viewBox="0 0 1572 879" fill="none" xmlns="http://www.w3.org/2000/svg">
<path d="M426.435 446.507C476.91 478.524 522.885 525.757 534.78 580.598C546.997 635.439 525.135 697.888 492.664 755.265C460.192 812.642 416.79 864.313 364.707 876.042C312.624 887.454 251.539 858.29 192.704 833.247C133.87 807.887 76.9643 786.648 41.9209 744.487C7.19889 702.326 -5.66111 638.926 2.37639 576.794C10.0924 514.345 38.7059 453.165 85.9663 420.513C133.548 387.862 199.777 383.741 260.219 390.398C320.983 397.055 375.959 414.491 426.435 446.507Z" fill="#FFDBB4"/>
<path d="M382.374 229.246C385.572 233.847 387.827 239.609 386.859 244.806C385.919 250.014 381.756 254.657 376.861 258.477C371.965 262.298 366.332 265.228 361.403 264.373C356.485 263.49 352.267 258.756 348.092 254.461C343.93 250.138 339.784 246.242 338.289 241.315C336.822 236.399 338.018 230.425 340.975 225.311C343.915 220.159 348.615 215.869 353.889 214.731C359.191 213.605 365.066 215.63 370.049 218.384C375.059 221.151 379.177 224.646 382.374 229.246Z" fill="#9FD8E5"/>
<path d="M390.318 145.507C395.301 152.699 398.809 161.708 397.289 169.84C395.812 177.99 389.306 185.261 381.658 191.247C374.01 197.233 365.213 201.828 357.521 200.499C349.848 199.128 343.272 191.729 336.765 185.017C330.276 178.262 323.812 172.176 321.488 164.47C319.208 156.783 321.086 147.432 325.71 139.427C330.308 131.361 337.653 124.641 345.886 122.851C354.163 121.08 363.329 124.237 371.1 128.537C378.915 132.855 385.336 138.315 390.318 145.507Z" fill="#9093D1"/>
<path d="M436.279 236.703C437.878 239.003 439.005 241.884 438.521 244.482C438.051 247.086 435.969 249.408 433.522 251.318C431.074 253.228 428.257 254.694 425.793 254.266C423.334 253.825 421.225 251.457 419.138 249.31C417.056 247.148 414.983 245.201 414.236 242.737C413.503 240.28 414.101 237.291 415.579 234.735C417.049 232.159 419.399 230.014 422.036 229.445C424.687 228.882 427.624 229.895 430.115 231.272C432.621 232.655 434.68 234.402 436.279 236.703Z" fill="#9093D1"/>
<path d="M467.543 130.054C470.121 133.762 471.939 138.407 471.158 142.595C470.4 146.793 467.045 150.536 463.099 153.615C459.153 156.694 454.612 159.056 450.64 158.367C446.676 157.656 443.276 153.84 439.91 150.378C436.555 146.894 433.214 143.754 432.009 139.782C430.826 135.82 431.791 131.004 434.173 126.882C436.544 122.729 440.333 119.272 444.583 118.354C448.856 117.446 453.592 119.079 457.608 121.299C461.647 123.529 464.966 126.346 467.543 130.054Z" fill="#9093D1"/>
<path d="M451.434 181.727C454.633 186.328 456.887 192.089 455.919 197.286C454.979 202.494 450.816 207.137 445.92 210.958C441.025 214.778 435.393 217.709 430.463 216.853C425.545 215.971 421.327 211.236 417.153 206.941C412.99 202.619 408.844 198.723 407.349 193.796C405.882 188.88 407.078 182.905 410.034 177.792C412.974 172.639 417.676 168.35 422.949 167.212C428.251 166.085 434.126 168.111 439.109 170.865C444.119 173.631 448.236 177.126 451.434 181.727Z" fill="#F7859C"/>
<path d="M533.968 230.383C538.951 237.575 542.46 246.585 540.939 254.717C539.462 262.866 532.956 270.138 525.309 276.124C517.66 282.109 508.863 286.704 501.171 285.376C493.498 284.005 486.922 276.605 480.415 269.893C473.926 263.138 467.462 257.053 465.138 249.347C462.859 241.659 464.736 232.308 469.36 224.304C473.958 216.238 481.303 209.518 489.536 207.728C497.813 205.956 506.98 209.114 514.751 213.414C522.566 217.732 528.987 223.192 533.968 230.383Z" fill="#FFDBB4"/>
<path d="M1392.18 231.212C1441.95 263.228 1487.28 310.462 1499.01 365.302C1511.06 420.144 1489.5 482.593 1457.49 539.97C1425.47 597.347 1382.67 649.018 1331.32 660.747C1279.97 672.159 1219.74 642.995 1161.72 617.952C1103.71 592.592 1047.6 571.353 1013.05 529.192C978.815 487.031 966.135 423.63 974.06 361.498C981.668 299.05 1009.88 237.869 1056.48 205.218C1103.4 172.567 1168.7 168.446 1228.29 175.103C1288.21 181.76 1342.41 199.195 1392.18 231.212Z" fill="#FFDBB4"/>
<path d="M1154.54 628.957C1154.37 626.306 1154.87 623.413 1156.53 621.538C1158.19 619.651 1161.01 618.781 1163.93 618.425C1166.84 618.069 1169.84 618.255 1171.63 619.808C1173.4 621.368 1173.95 624.323 1174.59 627.088C1175.22 629.863 1175.94 632.459 1175.34 634.827C1174.73 637.183 1172.79 639.319 1170.34 640.674C1167.89 642.05 1164.93 642.645 1162.52 641.817C1160.1 640.979 1158.21 638.72 1156.87 636.384C1155.52 634.035 1154.71 631.608 1154.54 628.957Z" fill="#9093D1"/>
<path d="M1038.27 666.503C1037.93 661.201 1038.93 655.415 1042.26 651.665C1045.57 647.891 1051.21 646.152 1057.04 645.44C1062.88 644.728 1068.87 645.099 1072.45 648.204C1076 651.325 1077.1 657.235 1078.37 662.767C1079.63 668.314 1081.08 673.507 1079.87 678.243C1078.66 682.956 1074.76 687.227 1069.86 689.939C1064.96 692.689 1059.06 693.878 1054.23 692.225C1049.38 690.549 1045.62 686.031 1042.93 681.357C1040.23 676.66 1038.61 671.806 1038.27 666.503Z" fill="#F7859C"/>
<path d="M1105 732.356C1104.66 727.053 1105.66 721.268 1108.99 717.517C1112.3 713.744 1117.94 712.005 1123.78 711.293C1129.61 710.581 1135.61 710.952 1139.18 714.056C1142.73 717.176 1143.83 723.087 1145.1 728.618C1146.36 734.167 1147.81 739.36 1146.61 744.096C1145.39 748.807 1141.49 753.08 1136.6 755.79C1131.69 758.541 1125.79 759.73 1120.96 758.077C1116.12 756.401 1112.35 751.883 1109.66 747.209C1106.96 742.511 1105.34 737.658 1105 732.356Z" fill="#F7859C"/>
<path d="M1072.34 586.342C1071.83 578.061 1073.4 569.023 1078.61 563.157C1083.8 557.255 1092.63 554.525 1101.75 553.398C1110.87 552.272 1120.25 552.837 1125.82 557.676C1131.36 562.542 1133.07 571.77 1135.05 580.406C1137 589.068 1139.25 597.174 1137.36 604.573C1135.44 611.936 1129.34 618.619 1121.68 622.864C1114.01 627.172 1104.77 629.045 1097.23 626.475C1089.66 623.869 1083.79 616.822 1079.6 609.529C1075.38 602.199 1072.86 594.623 1072.34 586.342Z" fill="#9FD8E5"/>
<path d="M1102.14 666.504C1101.8 661.202 1102.8 655.416 1106.13 651.665C1109.44 647.892 1115.08 646.153 1120.92 645.441C1126.75 644.729 1132.75 645.1 1136.32 648.204C1139.87 651.326 1140.97 657.236 1142.24 662.768C1143.5 668.315 1144.95 673.508 1143.75 678.244C1142.53 682.956 1138.63 687.228 1133.74 689.939C1128.83 692.689 1122.93 693.878 1118.1 692.225C1113.25 690.549 1109.49 686.031 1106.8 681.357C1104.1 676.661 1102.48 671.807 1102.14 666.504Z" fill="#FFDBB4"/>
</svg>
